Coordinates
version=1
nRows=8
nColumns=34
inDegrees=yes

Units are S.I. units (second, meters, Newtons, ...)
If the header above contains a line with 'inDegrees', this indicates whether rotational values are in degrees (yes) or radians (no).

endheader
time	pelvis_tilt	pelvis_list	pelvis_rotation	pelvis_tx	pelvis_ty	pelvis_tz	hip_flexion_r	hip_adduction_r	hip_rotation_r	knee_angle_r	ankle_angle_r	subtalar_angle_r	mtp_angle_r	hip_flexion_l	hip_adduction_l	hip_rotation_l	knee_angle_l	ankle_angle_l	subtalar_angle_l	mtp_angle_l	lumbar_extension	lumbar_bending	lumbar_rotation	arm_flex_r	arm_add_r	arm_rot_r	elbow_flex_r	pro_sup_r	arm_flex_l	arm_add_l	arm_rot_l	elbow_flex_l	pro_sup_l
     22.24166670	     -0.82642794	     -7.14673927	   -176.00622111	      0.11101226	      1.09555258	      0.16915685	     25.54731146	     -3.93239223	     -9.23970133	     12.77693374	    -11.43474130	      6.01327192	      0.00000000	     -9.88308864	      7.76326553	      1.45424690	     68.89769027	    -20.93689993	    -27.83895449	      0.00000000	    -15.26571232	     -9.77068700	    -15.61636220	    -34.83788468	    -11.60226153	     -6.77587037	    100.36980893	     95.65822625	     23.97293528	    -23.07748755	     28.52620139	     97.28004222	     71.61855506
     22.25000000	     -1.20086825	     -6.95315943	   -176.37474197	      0.11240974	      1.08825792	      0.16942805	     24.93415648	     -3.60523532	     -9.46705836	     14.43298678	    -10.75638993	      5.36321349	      0.00000000	     -8.23930621	      7.51795494	      1.04193709	     74.39522203	    -21.22107839	    -28.14087088	      0.00000000	    -15.88091148	     -9.18790591	    -14.52643001	    -33.52217167	    -11.86771959	     -6.86819418	    100.54644179	     95.72916284	     22.90649227	    -23.21973816	     28.71497701	     96.67335716	     71.58879442
     22.25833330	     -1.15236032	     -6.66265561	   -176.72744530	      0.11355463	      1.07893172	      0.16953254	     24.83182495	     -3.17030144	     -9.48352702	     16.55315325	     -9.99817860	      4.06093602	      0.00000000	     -6.02416724	      7.11470218	      0.56175117	     79.87302309	    -20.89847695	    -27.73529564	      0.00000000	    -15.80531431	     -8.51510373	    -13.28140113	    -32.37503437	    -12.35516116	     -6.82203438	    100.92554171	     95.94027939	     21.16693706	    -23.41162726	     28.51323327	     96.06579320	     71.64732556
     22.26666670	     -1.13399646	     -6.26137497	   -177.19530167	      0.11484134	      1.06876739	      0.16914751	     24.87250760	     -2.52597130	     -8.99345487	     19.30221166	     -8.51953013	      2.28508897	      0.00000000	     -3.77046253	      6.44286883	     -0.00087821	     85.31810105	    -19.97941778	    -26.91728883	      0.00000000	    -15.88208719	     -7.75875195	    -11.86978014	    -31.18251816	    -12.96959778	     -6.79449649	    101.32596099	     96.14965667	     19.23427475	    -23.79630521	     28.08548921	     95.67831104	     71.88048030
     22.27500000	     -0.93159855	     -5.83795191	   -177.73970776	      0.11624770	      1.05821105	      0.16857889	     25.31666648	     -1.75578672	     -8.13877104	     22.66866328	     -6.16426158	      0.14362800	      0.00000000	     -1.20631990	      5.73866790	     -0.49445740	     90.66814022	    -18.43558260	    -25.29147422	      0.00000000	    -15.85373438	     -7.02490583	    -10.30637873	    -30.00900732	    -13.66355953	     -6.73408901	    101.81436767	     96.36071355	     16.83810344	    -24.38947437	     27.42273751	     95.44416705	     72.31405103
     22.28333330	     -0.38665329	     -5.25580792	   -178.05669688	      0.11787019	      1.04760770	      0.16793704	     26.20208027	     -0.76527428	     -7.09157658	     26.42446411	     -3.10555604	     -2.45534713	      0.00000000	      1.81898332	      4.72808719	     -0.71656947	     95.84239802	    -16.92601146	    -24.32361816	      0.00000000	    -15.42478529	     -6.18349168	     -9.85410034	    -27.71730256	    -14.82943746	     -5.80203745	    101.35298323	     97.02634314	     13.13180777	    -25.25665999	     24.81112797	     95.44949156	     74.38440909
     22.29166670	     -0.00754013	     -4.84435956	   -178.65988169	      0.11914508	      1.03898640	      0.16689482	     26.92481387	      0.23296295	     -5.83665157	     30.32024705	     -0.00976927	     -4.74153221	      0.00000000	      4.62544604	      3.84418652	     -1.08309967	    100.46825199	    -15.43912811	    -22.99609553	      0.00000000	    -15.42288975	     -5.56410191	     -7.91919348	    -26.60269718	    -15.81992703	     -5.47908768	    102.12796574	     97.17521653	     11.07716383	    -25.65910877	     24.10414599	     94.68775786	     75.08257865
     22.30000000	      0.88291319	     -4.33083733	   -178.83451125	      0.11993917	      1.03150473	      0.16612266	     27.87752592	      1.25685815	     -4.92353096	     33.76171522	      2.67091471	     -7.33706681	      0.00000000	      8.04436437	      2.84938727	     -0.99459729	    104.59873783	    -14.00873003	    -21.87806691	      0.00000000	    -14.65830050	     -4.96299970	     -7.47515538	    -24.17748475	    -16.85771804	     -4.41222243	    101.16962264	     97.64737850	      7.38778008	    -26.36814766	     21.66912447	     93.65302869	     77.83091692
